<svg id="svg" xmlns="http://www.w3.org/2000/svg" xmlns:xlink="http://www.w3.org/1999/xlink" width="400" height="400" viewBox="0, 0, 400,400" version="1.1"><g id="svgg"><path id="path0" d="M135.943 117.049 C 128.067 119.269,118.035 127.226,117.077 132.013 C 116.784 133.482,114.794 136.224,111.997 139.014 C 103.934 147.057,100.366 161.992,102.778 177.600 C 105.421 194.706,106.460 198.545,110.785 207.199 C 113.094 211.820,115.240 217.349,115.554 219.487 L 116.124 223.375 110.262 222.822 C 79.319 219.903,76.654 219.102,63.665 208.818 C 55.268 202.169,52.800 200.922,52.800 203.329 C 52.800 204.780,70.435 222.735,73.359 224.259 C 77.158 226.241,84.517 227.664,98.800 229.180 C 105.400 229.880,111.880 230.623,113.200 230.830 L 115.600 231.207 115.807 254.544 C 116.036 280.428,115.874 279.385,119.273 276.872 C 121.439 275.271,122.004 275.173,124.089 276.037 C 125.388 276.575,126.603 276.864,126.788 276.678 C 127.363 276.104,131.140 250.452,131.937 241.721 C 132.352 237.167,132.828 233.305,132.995 233.138 C 133.394 232.739,177.071 237.238,188.400 238.844 C 205.127 241.216,205.751 241.795,212.910 261.600 C 220.670 283.072,221.543 280.168,197.515 312.800 C 173.839 344.954,174.403 344.000,179.085 344.000 C 181.842 344.000,182.674 343.121,203.706 318.000 C 235.528 279.990,233.886 284.683,223.600 261.131 C 213.985 239.116,213.340 240.914,232.196 237.169 C 249.899 233.654,254.093 233.639,335.600 236.800 C 369.480 238.114,397.830 239.191,398.600 239.194 C 399.742 239.199,400.000 238.484,400.000 235.323 L 400.000 231.446 386.740 230.975 C 364.862 230.200,364.856 233.805,386.814 179.651 L 400.055 146.992 399.828 139.296 L 399.600 131.600 381.709 170.000 C 352.137 233.472,357.246 228.483,322.090 228.223 C 295.393 228.025,297.307 228.275,298.409 225.130 C 300.141 220.181,306.015 218.853,314.006 221.602 C 321.486 224.176,320.782 221.857,312.740 217.437 C 309.404 215.603,308.298 214.605,308.855 213.934 C 309.734 212.875,307.821 211.028,298.572 204.001 C 295.387 201.582,292.589 199.062,292.353 198.401 C 291.102 194.893,285.358 191.813,281.212 192.427 C 279.006 192.755,275.130 193.040,272.600 193.061 C 267.582 193.103,267.061 193.550,269.800 195.460 C 271.588 196.708,271.582 196.716,268.840 196.758 C 265.604 196.807,266.299 197.791,270.522 199.140 C 273.844 200.200,274.900 202.581,273.584 206.043 C 271.922 210.413,273.709 215.151,279.311 221.228 C 284.145 226.472,283.280 226.760,262.494 226.826 C 246.110 226.877,244.548 227.018,232.800 229.506 C 223.139 231.552,218.526 232.127,211.916 232.107 C 204.795 232.085,136.909 225.895,136.152 225.198 C 136.015 225.073,138.260 220.266,141.141 214.518 C 153.227 190.400,156.530 174.269,153.197 155.641 C 149.653 135.837,150.168 133.561,159.397 128.238 C 166.767 123.987,166.837 123.178,159.945 121.968 C 157.115 121.472,153.121 120.093,151.070 118.903 C 146.611 116.319,140.983 115.629,135.943 117.049 M295.003 225.800 C 294.797 226.426,292.750 226.891,289.537 227.042 C 283.402 227.332,283.814 225.862,290.000 225.392 C 292.200 225.225,294.300 225.024,294.667 224.944 C 295.033 224.865,295.185 225.250,295.003 225.800 " stroke="none" fill="#000000" fill-rule="evenodd"></path></g></svg>