<svg id="svg" xmlns="http://www.w3.org/2000/svg" xmlns:xlink="http://www.w3.org/1999/xlink" width="400" height="244" viewBox="0, 0, 400,244"><g id="svgg"><path id="path0" d="M61.600 28.120 C 64.460 30.787,66.207 32.777,65.482 32.541 C 63.287 31.828,52.800 30.958,52.800 31.489 C 52.800 31.761,55.988 33.585,59.884 35.542 L 66.968 39.100 67.804 43.328 C 68.599 47.345,68.504 47.827,65.920 52.959 C 60.168 64.381,64.137 81.339,75.527 94.000 C 78.628 97.448,78.969 98.157,77.997 99.137 C 76.470 100.676,76.205 100.520,59.761 88.401 L 45.652 78.003 49.226 74.374 C 54.155 69.369,54.570 69.726,37.400 64.219 C 17.784 57.929,18.804 56.952,24.352 76.704 C 29.508 95.059,28.739 93.980,33.418 89.414 L 37.200 85.723 59.200 101.717 C 71.300 110.513,84.814 120.300,89.232 123.466 L 97.264 129.222 138.832 127.066 C 161.694 125.881,182.382 124.886,184.804 124.855 L 189.208 124.800 226.004 153.216 C 262.311 181.255,262.843 181.627,266.000 181.259 C 267.760 181.053,287.560 179.552,310.000 177.923 L 350.800 174.962 374.991 186.281 C 388.296 192.506,399.366 197.600,399.591 197.600 C 399.816 197.600,400.000 194.968,400.000 191.750 L 400.000 185.901 375.717 174.636 L 351.434 163.372 308.322 166.773 L 265.209 170.174 228.405 141.753 L 191.600 113.333 157.200 115.117 C 138.280 116.098,119.609 117.115,115.708 117.377 L 108.617 117.853 109.175 114.326 C 109.482 112.387,111.053 108.470,112.666 105.623 L 115.600 100.445 122.645 97.815 L 129.691 95.186 135.563 96.690 C 139.013 97.574,145.018 100.158,150.118 102.953 C 159.808 108.264,161.600 109.061,161.600 108.061 C 161.600 106.514,153.813 98.880,145.962 92.733 C 136.756 85.524,136.531 85.214,140.000 84.520 C 144.478 83.624,145.042 84.411,122.205 59.717 C 114.481 51.365,110.157 46.047,109.677 44.309 C 108.630 40.516,97.964 28.234,94.877 27.266 C 87.042 24.810,85.624 24.699,78.716 25.993 C 71.951 27.261,71.866 27.256,65.238 25.234 C 55.973 22.408,55.705 22.621,61.600 28.120 M90.916 103.279 C 94.488 103.901,97.775 103.916,102.165 103.329 C 105.576 102.873,108.490 102.623,108.639 102.773 C 109.458 103.592,105.160 109.668,101.656 112.644 L 97.602 116.087 89.669 110.332 C 79.291 102.802,79.557 101.301,90.916 103.279 " stroke="none" fill="#000000" fill-rule="evenodd"></path></g></svg>